<svg width="512" height="512" viewBox="0 0 512 512" fill="none" xmlns="http://www.w3.org/2000/svg">
<g clip-path="url(#clip0_2_3)">
<path d="M256.151 16.0036C257.101 16.0055 258.052 16.0073 259.033 16.0092C272.683 16.0559 286.075 16.2905 299.483 19.0983C300.393 19.2843 301.304 19.4702 302.243 19.6608C347.45 29.1178 388.553 49.5969 421.888 81.7026C422.812 82.5893 422.812 82.5893 423.755 83.4929C432.621 92.037 440.787 100.725 448.051 110.669C448.853 111.744 449.654 112.82 450.456 113.895C456.097 121.548 461.127 129.493 465.804 137.766C466.18 138.428 466.556 139.088 466.943 139.769C479.114 161.387 487.289 184.906 492.259 209.189C492.396 209.861 492.535 210.533 492.677 211.224C495.454 225.845 496.053 240.303 495.996 255.149C495.995 256.1 495.993 257.052 495.99 258.032C495.944 271.682 495.71 285.074 492.902 298.482C492.623 299.849 492.623 299.849 492.338 301.242C482.882 346.45 462.403 387.553 430.298 420.887C429.706 421.504 429.116 422.12 428.507 422.754C419.963 431.62 411.275 439.787 401.332 447.05C400.255 447.852 399.18 448.653 398.104 449.456C390.453 455.097 382.507 460.127 374.234 464.804C373.573 465.18 372.912 465.556 372.231 465.943C350.614 478.114 327.094 486.288 302.812 491.259C302.14 491.396 301.468 491.535 300.776 491.676C286.156 494.455 271.698 495.053 256.852 494.997C255.425 494.994 255.425 494.994 253.969 494.99C240.319 494.944 226.927 494.71 213.519 491.901C212.152 491.622 212.152 491.622 210.758 491.338C170.328 482.881 132.767 465.703 101.39 438.641C100.699 438.048 99.9978 437.456 99.2783 436.845C86.664 425.809 74.8253 413.895 64.947 400.33C64.1528 399.256 63.3492 398.182 62.5456 397.108C56.9019 389.455 51.8749 381.509 47.1936 373.233C46.8198 372.572 46.4461 371.912 46.0536 371.231C33.8879 349.613 25.712 326.094 20.741 301.811C20.6009 301.139 20.4701 300.467 20.3206 299.775C17.5454 285.155 16.9474 270.697 17.0035 255.85C17.0035 254.899 17.0035 253.949 17.0128 252.968C17.0596 239.318 17.2932 225.926 20.0963 212.518C20.2832 211.607 20.4701 210.696 20.6663 209.757C30.113 164.55 50.5948 123.448 82.7022 90.1121C83.3002 89.4964 83.8889 88.8806 84.4963 88.2452C93.0366 79.3797 101.726 71.2131 111.668 63.9491C112.743 63.1474 113.817 62.3457 114.901 61.544C122.554 55.9031 130.496 50.8733 138.766 46.1957C139.429 45.8201 140.092 45.4444 140.775 45.0576C162.388 32.8862 185.907 24.7112 210.19 19.7412C210.862 19.6029 211.534 19.4655 212.225 19.3235C226.846 16.5446 241.304 15.9466 256.151 16.0036Z" fill='hsl(346.8 77.2% 55.8%)'/>
<path d="M462.991 134C479.363 154.013 487.179 184.363 492.258 209.167C492.395 209.838 492.533 210.51 492.675 211.202C495.454 225.823 496.053 240.282 495.996 255.13C495.995 256.082 495.993 257.033 495.99 258.013C495.944 271.665 495.709 285.057 492.901 298.466C492.622 299.833 492.622 299.833 492.337 301.226C482.878 346.438 462.392 387.544 430.276 420.881C429.685 421.498 429.094 422.114 428.485 422.748C419.939 431.615 411.248 439.783 401.301 447.046C400.224 447.848 399.148 448.65 398.072 449.452C390.418 455.094 382.47 460.124 374.195 464.801C373.533 465.178 372.872 465.553 372.191 465.94C350.566 478.113 327.039 486.287 302.748 491.259C302.076 491.396 301.404 491.534 300.713 491.675C286.088 494.454 271.625 495.053 256.774 494.996C255.822 494.995 254.871 494.993 253.89 494.99C240.235 494.944 226.839 494.71 213.427 491.901C212.06 491.622 212.06 491.622 210.665 491.338C173.311 483.526 134.62 468.322 105.935 442.374C105.477 440.986 105.477 440.986 105 439.571C109.281 440.148 113.496 440.865 117.731 441.757C130.573 444.426 143.297 447.033 156.411 447.981C157.43 448.059 158.45 448.138 159.499 448.219C208.99 451.817 259.462 444.302 304.093 421.816C304.974 421.381 305.855 420.948 306.763 420.5C319.898 414.004 332.389 407.019 344.284 398.454C344.927 397.993 345.571 397.532 346.235 397.057C355.327 390.502 363.962 383.486 372.325 376.027C372.866 375.545 373.408 375.062 373.966 374.565C379.399 369.7 384.744 364.829 389.423 359.218C390.574 357.862 391.771 356.544 392.994 355.254C416.445 330.503 434.059 299.339 446.166 267.629C446.441 266.922 446.716 266.215 446.999 265.486C458.686 235.123 464.159 202.907 464.042 170.444C464.041 169.78 464.04 169.116 464.039 168.431C464.022 156.936 463.678 145.477 462.991 134Z" fill="hsl(346.8 77.2% 49.8%)"/>
<path d="M202.918 317.78C289.051 317.327 351.498 316.08 390.258 314.04C388.671 323.333 387.651 332.967 387.198 342.94C386.971 352.687 386.858 365.04 386.858 380H122.678C124.491 336.027 125.398 294.887 125.398 256.58C125.398 218.273 124.491 177.133 122.678 133.16H386.858V194.7H202.918V227.34C213.798 227.567 229.891 227.68 251.198 227.68C287.238 227.68 324.525 227 363.058 225.64V284.12C324.525 282.76 287.238 282.08 251.198 282.08C229.891 282.08 213.798 282.193 202.918 282.42V317.78Z" fill="white"/>
</g>
<defs>
<clipPath id="clip0_2_3">
<rect width="512" height="512" fill="white"/>
</clipPath>
</defs>
</svg>
