<svg xmlns="http://www.w3.org/2000/svg" version="1.1" xmlns:xlink="http://www.w3.org/1999/xlink" xmlns:svgjs="http://svgjs.dev/svgjs" viewBox="0 0 1422 800"><defs><radialGradient id="cccircular-grad" r="50%" cx="50%" cy="50%">
         <stop offset="15%" stop-color="#003ab8" stop-opacity="0.5"></stop>
         <stop offset="75%" stop-color="hsl(221.2 83.2% 53.3%)" stop-opacity="1"></stop>
          <stop offset="100%" stop-color="#a9c0ff" stop-opacity="1"></stop>
        </radialGradient></defs><g fill="url(#cccircular-grad)"><circle r="2431" cx="711" cy="0" opacity="0.05"></circle><circle r="2359.5" cx="711" cy="0" opacity="0.08"></circle><circle r="2288" cx="711" cy="0" opacity="0.11"></circle><circle r="2216.5" cx="711" cy="0" opacity="0.14"></circle><circle r="2145" cx="711" cy="0" opacity="0.17"></circle><circle r="2073.5" cx="711" cy="0" opacity="0.19"></circle><circle r="2002" cx="711" cy="0" opacity="0.22"></circle><circle r="1930.5" cx="711" cy="0" opacity="0.25"></circle><circle r="1859" cx="711" cy="0" opacity="0.28"></circle><circle r="1787.5" cx="711" cy="0" opacity="0.31"></circle><circle r="1716" cx="711" cy="0" opacity="0.34"></circle><circle r="1644.5" cx="711" cy="0" opacity="0.37"></circle><circle r="1573" cx="711" cy="0" opacity="0.40"></circle><circle r="1501.5" cx="711" cy="0" opacity="0.42"></circle><circle r="1430" cx="711" cy="0" opacity="0.45"></circle><circle r="1358.5" cx="711" cy="0" opacity="0.48"></circle><circle r="1287" cx="711" cy="0" opacity="0.51"></circle><circle r="1215.5" cx="711" cy="0" opacity="0.54"></circle><circle r="1144" cx="711" cy="0" opacity="0.57"></circle><circle r="1072.5" cx="711" cy="0" opacity="0.60"></circle><circle r="1001" cx="711" cy="0" opacity="0.63"></circle><circle r="929.5" cx="711" cy="0" opacity="0.65"></circle><circle r="858" cx="711" cy="0" opacity="0.68"></circle><circle r="786.5" cx="711" cy="0" opacity="0.71"></circle><circle r="715" cx="711" cy="0" opacity="0.74"></circle><circle r="643.5" cx="711" cy="0" opacity="0.77"></circle><circle r="572" cx="711" cy="0" opacity="0.80"></circle><circle r="500.5" cx="711" cy="0" opacity="0.83"></circle><circle r="429" cx="711" cy="0" opacity="0.86"></circle><circle r="357.5" cx="711" cy="0" opacity="0.88"></circle><circle r="286" cx="711" cy="0" opacity="0.91"></circle><circle r="214.5" cx="711" cy="0" opacity="0.94"></circle><circle r="143" cx="711" cy="0" opacity="0.97"></circle></g></svg>
