<svg version="1.2" xmlns="http://www.w3.org/2000/svg" viewBox="0 0 2739 1826" width="2739" height="1826"><style>.a{fill:#fb736d}.b{fill:#fff}.c{fill:#9ec386}.d{fill:#bbd7a7}.e{fill:#ffc559}.f{fill:#ffe1c7}.g{fill:#d1cfda}.h{fill:#ffa57a}.i{fill:#a1cae1}.j{fill:#332e3c}.k{fill:#9aa6be}.l{fill:#ffbf4f}.m{fill:#adabb8}</style><path fill-rule="evenodd" class="a" d="m1272.8 709.8c0 0-4.7-19.5-6.2-37.2-1.5-17.7-0.3-34.5-0.3-34.5l45.5-66.3 20.1-5.6 55.9 42 48.4 98.2c0 0 20.9 111.6-2.3 134.5-13.6 13.5-40.9 19.2-70.1 24.2-38.8 6.7-82.8 9.6-121.6 3.4-33.3-5.4-59.3-17.8-72.5-28.6-11.4-9.3-22.3-25.7-22.8-47.1-0.4-18.6 7.6-41.9 22.8-55.6 12-10.9 28.3-19.4 46.8-23.6 27.1-6 56.3-3.8 56.3-3.8z"/><path fill-rule="evenodd" class="b" d="m1515.4 802.9l10.5-8.5 202.5 19.1 55.2 25.6 52.8 128.6-4.5 55.3-12.1 7.8-314.1-29.7-8.5-10z"/><path fill-rule="evenodd" class="c" d="m765.6 811c0 0 102.1 12.9 207.9 47 105.7 34.2 215.2 89.7 215.2 89.7l-50.1 179.1c0 0-103.5-43.4-208.8-78.1-105.3-34.6-212.4-60.5-212.4-60.5z"/><path fill-rule="evenodd" class="d" d="m900.1 942.3c5.4-20.8 46.3-54.2 60-50.7 13.8 3.6 50.4 61.2 45 82.1-2.5 9.7-15.7 24-29 29.7-15.3 6.5-31.3 3.5-38.7 1.6-6.9-1.8-20.4-9.6-28.7-22.3-8.2-12.6-11.3-30-8.6-40.4z"/><path fill-rule="evenodd" class="e" d="m1593.7 295.5c0 0-9.6-9.2-3.9-17.5 18.4-26.7 113.4-143.4 113.4-143.4 0 0 50.5 5.9 86.9 35.6 36.3 29.7 58.6 83.2 58.6 83.2 0 0-48.1 46.3-88.5 86.1-29.5 29.3-51.4 54.9-64.5 57.1-49.4 8.4-102-101.1-102-101.1z"/><path fill-rule="evenodd" class="f" d="m645.1 588.4c0 0 11.5 7.7 27.6 18.4 15.3 10.1 34.4 23.2 63.6 22 33.7-1.5 76.6-11.1 116.2-15.8 19.6-2.4 43.6-11.3 54.9-2.5 34.5 26.9 64 65 89.1 95.7 15.9 19.6 33.4 35.3 37.7 47.6 10.9 31.1 8.9 127.1 6.5 151.6-3.2 31.6-28.3 6-28.3 6 0 0 0.2 40.5-8.2 59-4.2 9.1-15.5 5.3-20.2 3.4-13.9-5.6-27.5-85-27.5-85 0 0-3.2 20.2-6 38.6-3.3 21-6.8 41-14.3 52.5-4.8 7.4-18 0.9-21.6-5.2-11.7-19.5-11.3-82.5-8.8-125 1.3-21.4-16.1-48-16.1-48 0 0 1.8 14 1.4 33.3-0.7 44.4-6.9 115.7-29.7 102.3-10.1-5.9-14.5-33.8-15.4-60.3-0.5-18.4 3.6-32.8-3.8-53.3-5.3-14.5-29.8-52.8-38.6-59.8-6.8-5.3-16.9-3.7-27.7-3.8-30.2-0.3-70.4 10.3-92.7 3.9-31.8-9.1-54.9-23.4-73.5-33.9-24.7-14-39.6-23.1-39.6-23.1 0 0 24-26.2 42.8-55.8 18.7-29.7 32.2-62.8 32.2-62.8z"/><path fill-rule="evenodd" class="f" d="m1348.1 426.3c0 0 35.9-7.9 79.9-19.9 26.7-7.3 57.8-14.1 81.9-27.2 31-16.9 54.8-45.7 70-63.9 15.8-19.1 22.3-27.3 22.3-27.3 0 0 29 11.4 50.9 36 21.9 24.5 36.8 62.3 36.8 62.3 0 0-7 5.8-20.8 19.1-20.2 19.5-53.2 51.7-85.2 75.3-22.5 16.7-42.6 20.3-62.7 33.4-7.7 5-16.6 10.8-23.9 20.3-5.3 6.9-11.2 38.1-8.8 59.9 2.5 22.7 10.2 40 13.3 55.1 2 10.1 1.4 21.4-2.1 24.6-0.7 0.7-7 8.3-17.7-1.4-9.9-8.9-24-34.1-31.1-53.2-7.3-19.8-8.2-52.1-9.2-72.2-0.9-19.2-2.2-26.8-2.7-24.7-1.1 4.4-7.4 56.7 0.5 90.4 7.1 30.2 24 57.7 33.4 78.9 8.7 19.7 10.1 34 8.4 36.7-4.8 7.7-12.7 10.4-21.8 4-11.1-8-33.4-35.5-47.8-61.2-17.5-31.3-26.3-60.7-26.3-60.7 0 0-0.3 14.3 2.6 29.9 4.7 25.7 13.3 60.8 11.8 84.6-1.6 25.1-20.1 22.5-27.2 11.1-8.7-14-33-76.3-38.9-109.1-5.2-28.9-2.5-48.9-1-64.6 1.5-15.6 1.8-27 1.8-27 0 0-33 35.8-29.9 58.6 2 14.6 12.1 51.1 13.8 76.6 1.1 17.2-4.9 27.7-7.5 29.4-9.9 6.4-25.1-19-36.4-46-13.9-33.5-22.9-71.6-21.8-79.6 1.9-15.9 34.8-74.7 61.2-111.6 19.1-26.8 34.2-36.6 34.2-36.6z"/><path fill-rule="evenodd" class="f" d="m1831.3 714.3c-41.8-3.1-79.6 5.8-109 10.9-37.8 6.5-61.3 5.3-75.3 23.8-11.4 15-20.1 46.6-19.6 69.2 0.7 28.3 16.2 50.1 26.3 75.9 4.8 12.2 24.8 14.8 28.2-4.4 2.6-14.7-4.6-33.6-3.7-55.7 0.5-11.8 5.5-29 10.9-36.9 6.1-9.1 18.2-10.5 32.1-12.1 18.8-2.3 39.5-2.8 39.5-2.8 0 0-17.9 14.2-35 30.6-11.9 11.4-24.6 19.9-25.4 42.9-0.5 17 17.9 89.2 27.3 100.3 9.4 11.1 31.3 31.6 49.8 35.5 4.6 1 16.1-7.7 13.5-19.2-3.4-15.3-21.9-34.6-21.9-34.6l43.6 14.6c0 0 9.3 13.7 28 15.3 17.9 1.5 44.9-8.9 56.9-13.5 24.5-9.2 13.1-38.6 13.1-38.6l22 0.6 69.6 13.8c0 0 35.8-0.1 62.6 4.1 26.9 4.2 44.8 12.7 44.8 12.7 0 0-1.5-37.9 6.6-70.4 8-32.6 25.5-59.7 25.5-59.7 0 0-14-7.4-30.1-13.1-24.7-8.8-60.2-18.8-102.8-34.1-45-16.1-90-33.9-134.7-47.2-14.6-4.4-28.9-6.8-42.8-7.9zm-56.3 138.3c1.1 0.6-4.7 10-5.3 11.1-0.1 0.2-0.4 0.4-0.5 0.6-0.6 1.1-6.2 8.2-7.3 7.5-1-0.6 2.8-8.7 3.5-9.8 0.1-0.2 0.2-0.4 0.3-0.6 0.6-1.1 8.2-9.5 9.3-8.8z"/><path fill-rule="evenodd" class="g" d="m901 1094l184-0.1 43.4 16.9-1-16.9 642.5-0.5 11 5.1 176.1 242.4 0.9 78.4-6.9 5.2-24.1-0.2-0.9 217.7c0 0-233.3 54.7-597.2 53.7-363.7-1-583-48.6-583-48.6l-1.2-222.3-21.8-1-5.7-6.4 0.5-76.7 174.3-241.4z"/><path fill-rule="evenodd" class="d" d="m765.2 811.5l76.2 12 5 16.2-58.3-10.2-41.8 150.5c0 0 93.7 22.6 186.9 53 93.2 30.4 186 68.5 186 68.5l41.9-153.6c0 0-31.2-16.4-60.7-30.4-29.6-14-57.4-25.6-57.4-25.6l0.3-10.5c0 0 23.1 7.6 59.8 24.3 36.7 16.6 87 42.2 87 42.2l-51.4 177.9c0 0-99.9-43-205.2-77.1-105.4-34.1-216.3-59.3-216.3-59.3z"/><path fill-rule="evenodd" class="d" d="m809.9 915.5c6.5-20.9 20.3-26.9 30.3-24.3 5.3 1.4 7.3 13.5 9.7 22.9 2.2 8.5 5.2 14 3.7 19.9-3.2 12.5-20.3 22.8-30.4 20.2-13.5-3.5-17.2-26.5-13.3-38.7z"/><path fill-rule="evenodd" class="h" d="m2109.5 934.4c0-32 13.4-81.9 27-108.1 8.3-16.1 19.5-17.7 19.5-17.7l201.8 41.7c0 0 21.4 42.1 3.7 109.2-17 64.5-54.7 88.4-54.7 88.4 0 0-75.1-26.7-131.5-49.8-34.5-14.2-60.8-25.5-62.4-32.9-1.5-7-3.4-23.4-3.4-30.8z"/><path fill-rule="evenodd" class="i" d="m372.6 606.8c0 0 21.3-64 52.3-102 31-37.9 71.7-49.7 71.7-49.7l150.5 116.7c0 0-0.3 8.8-7.5 26.8-7.8 19.5-22.9 49.1-36.3 68.9-25.6 38.2-58.8 57.2-58.8 57.2 0 0-51-28.6-93.9-58.1-43-29.5-78-59.8-78-59.8z"/><path class="j" d="m1468.3 739.1c-13.5 0-27.1-19.4-42.8-41.8-15.5-22.1-24-35.5-27.6-43.5-10.4-23.4-15.1-53.3-16.7-65-2.6-19.9-6.8-57.2-5-84 0.1-1.9 1.7-3.3 3.6-3.2 1.9 0.1 3.3 1.8 3.2 3.6-1.7 26.3 2.4 63.1 5 82.7 3.2 23.8 9.2 47.4 16.2 63.1 4.3 9.7 16.6 27.8 26.9 42.4 12.8 18.2 27.2 38.9 37.2 38.9q0.3 0 0.5 0c4.3-0.4 7.1-1.7 8.5-4 4.2-7-2.1-23.8-8.8-39.4-4.2-9.8-9-19.3-13.6-28.4-7.9-15.7-15.3-30.6-18.9-44.6-6.2-24.9-6.6-95.6 1.1-99.3 2-0.8 3.8-0.7 5.2 0.4 4.2 2.9 4.2 11.5 3.8 29.3-0.2 6.6-0.3 13.4-0.1 19.4 0.9 19.8 1.5 34.2 8.5 53.2 8.6 23.7 26.5 57.7 40.7 54.5 1.6-0.3 2.8-1.2 3.6-2.5 4.6-8-2.5-30.7-8.2-49-1.1-3.8-2.3-7.6-3.4-11.2-8.6-29.2 1.1-70.4 9.5-80.7 11.6-14.3 41.9-29 62-38.8 7.8-3.8 14.5-7.1 17.3-8.9 24.4-16.6 48.3-39.4 87.8-77.3 6.9-6.6 14.3-13.6 22.2-21.1 1.3-1.3 3.5-1.3 4.8 0.1 1.3 1.4 1.3 3.5-0.1 4.8-7.9 7.6-15.2 14.6-22.1 21.2-39.9 38.1-63.9 61.1-88.8 77.9-3.2 2.2-9.8 5.4-18.1 9.5-19.5 9.5-49 23.8-59.7 36.9-6.6 8.2-16.2 47.2-8.2 74.5 1.1 3.6 2.2 7.3 3.4 11.1 6.7 21.6 13.6 43.9 7.5 54.4-1.8 3.1-4.5 5-8 5.8-24 5.4-44.8-48.1-48.7-58.8-7.3-20.1-8-35.6-8.8-55.3-0.3-6.2-0.1-13.2 0-19.9 0.1-3.1 0.2-6.7 0.2-10-1.8 19.7-2.6 54.5 3.3 78.1 3.3 13.3 10.6 27.8 18.3 43.2 4.7 9.3 9.5 18.8 13.8 28.8 9.2 21.4 13.8 36.6 8.3 45.6-2.5 4.3-7.2 6.8-13.7 7.3q-0.6 0-1.1 0z"/><path class="j" d="m1385.3 748.4c-18.6 0-30.9-40.9-40.1-71.3-1.2-3.8-2.2-7.4-3.3-10.6-8.4-26.7-14.3-47.7-14.2-75.3 0.1-17.4 3-41.6 6-67.1 2.2-18.7 4.5-38 6-56.7 0.1-1.9 1.7-3.4 3.6-3.2 1.9 0.2 3.3 1.8 3.2 3.7-1.5 18.9-3.8 38.2-6 57-3 25.3-5.8 49.3-5.9 66.4-0.2 26.6 5.4 46.3 13.9 73.1 1 3.3 2.1 6.9 3.2 10.7 7.5 24.6 21.3 70.4 35.6 66.1 15.7-4.7 7.2-47 1.6-75-1.3-6.6-2.6-12.7-3.5-18.2-3.9-22.7-3.4-31.7-2.9-38.9 0.2-3.1 0.3-5.8 0.1-9.3-0.1-1.8 1.4-3.5 3.2-3.6 1.9 0 3.5 1.4 3.7 3.3 0.2 3.8 0 6.8-0.2 10-0.4 7.2-0.9 15.4 2.8 37.4 1 5.3 2.2 11.4 3.5 17.9 6.8 34.1 15.3 76.5-6.4 83q-2 0.6-3.9 0.6z"/><path class="j" d="m1306.5 703.8c-10.2 0-20.4-13.8-32.8-44.1-10.7-26.1-19.6-55.1-23.8-77.6-3.8-20.3 17.7-53 42.7-90.8l6.9-10.5c24.2-37 41.6-56.9 51.6-59.1l4.7-1c91.6-19.5 148.5-37.9 169.1-54.6 32.8-26.6 71.7-78.5 72.1-79 1.1-1.5 3.2-1.9 4.7-0.7 1.6 1.1 1.9 3.3 0.7 4.8-1.6 2.1-39.7 53.1-73.2 80.2-32.3 26.2-137.4 48.7-171.9 56l-4.8 1c-3.7 0.8-15.7 7.9-47.3 56.1l-6.9 10.6c-23.1 35.1-45 68.2-41.7 85.8 4.1 22 12.9 50.5 23.4 76.2 14 34.2 22.5 40.5 27.2 39.8 6.6-1 9.1-12.9 7-32.6-1.4-13.1-4.2-25.5-6.8-37.5-2.7-12-5.2-23.3-6-33.9-1.7-21.8 30-60.3 31.3-62 1.2-1.4 3.4-1.6 4.8-0.4 1.5 1.2 1.7 3.3 0.5 4.8-8.7 10.5-31 41.3-29.8 57.1 0.8 10.1 3.2 21.2 5.9 33 2.7 12.1 5.5 24.7 6.9 38.2 2.7 24.8-1.6 38.3-12.7 40.1q-0.9 0.1-1.8 0.1z"/><path class="j" d="m1311.3 575.9c-1.4 0-2.6-0.8-3.2-2.1-0.7-1.7 0.1-3.8 1.8-4.5 6.7-2.8 13.8-4.5 21-4.9 1.9-0.1 3.5 1.4 3.6 3.3 0.1 1.8-1.4 3.5-3.3 3.6-6.4 0.3-12.6 1.8-18.6 4.3q-0.6 0.3-1.3 0.3z"/><path class="j" d="m1287.6 875.4q-4.5 0-9.1-0.1c-39.7-0.9-92.5-8.8-118.8-40.6-14-16.8-19.6-36.2-16.3-56 3.7-21.9 18.8-43.2 39.3-55.6 31.6-19.1 71.8-18 86-16.9-3.1-11.8-9.7-42.6-4.7-73 0.3-1.8 2.1-3.1 3.9-2.8 1.9 0.3 3.2 2.1 2.9 4-6 36 5.6 74.3 5.8 74.7 0.3 1.1 0.1 2.3-0.7 3.2-0.7 0.9-1.9 1.4-3.1 1.2-0.5-0.1-50.5-6.4-86.6 15.5-18.8 11.4-32.7 30.9-36 50.9-3 17.7 2.1 35.2 14.7 50.5 24.7 29.8 75.5 37.1 113.8 38.1 71.7 1.7 142.3-17.3 154.8-31 9.6-10.5 10.9-70.5-1.8-132-0.4-1.9 0.8-3.7 2.6-4.1 1.9-0.4 3.7 0.8 4.1 2.7 12.4 60 12.5 124.5 0.1 138-14.3 15.7-83.4 33.3-150.9 33.3z"/><path class="j" d="m1690.7 395.3c-1.6 0-3-1.1-3.3-2.8-8.1-47.7-65.3-99.7-93.9-102.9-1.9-0.2-3.2-1.9-3-3.8 0.2-1.8 1.9-3.2 3.8-3 31.2 3.5 91.1 57.4 99.8 108.5 0.3 1.9-0.9 3.7-2.8 4q-0.3 0-0.6 0z"/><path class="j" d="m1593.6 298.4c-1.1 0-2.2-0.6-2.8-1.5l-0.9-1.3c-7.8-11.3-7.8-14.7 9.7-36.7 2.9-3.6 7.3-9.2 12.3-15.6 7.3-9.2 15.6-19.8 22-27.8 6.5-8.1 12.3-15.1 17.8-21.9 14.8-18 27.6-33.5 48.2-61.8 1.1-1.6 3.2-1.9 4.8-0.8 1.5 1.1 1.8 3.3 0.7 4.8-20.7 28.4-34.1 44.8-48.4 62.2-5.5 6.7-11.3 13.7-17.7 21.8-6.4 8-14.8 18.6-22 27.7-5 6.4-9.4 12.1-12.3 15.7-15.7 19.6-15.1 20.4-9.5 28.5l0.9 1.3c1.1 1.6 0.7 3.7-0.9 4.8-0.6 0.4-1.2 0.6-1.9 0.6z"/><path class="j" d="m1694.6 400.4c-3 0-6.2-1.3-10.5-3.4l-1.3-0.7c-1.7-0.8-2.3-2.9-1.5-4.5 0.8-1.7 2.9-2.4 4.6-1.6l1.3 0.7c8.7 4.3 9.2 4.6 25.4-10.9 9.7-9.4 41.8-40.6 58.2-56.9 23.9-24 51.5-50 75.5-72.4 1.4-1.3 3.6-1.2 4.9 0.1 1.3 1.4 1.2 3.6-0.2 4.9-23.9 22.4-51.5 48.3-75.4 72.2-16.3 16.4-48.5 47.7-58.3 57-11.6 11.1-17 15.5-22.7 15.5z"/><path class="j" d="m1667.6 906.8q-2.4 0-4.8-0.8c-10.1-3.5-16.6-17.5-23-32.8-9.2-21.9-18.7-44.6-16.1-62.5 3.6-25.3 13.2-68.9 36.5-76.3 22.2-7 130.7-25.8 160.6-25.8q0.6 0 1.2 0.1c27.8 0.5 55.2 9.5 80.7 19.1 9.7 3.7 19.7 7 29.4 10.3 12.3 4.1 25.1 8.4 37.4 13.3 23.1 9.4 49.8 17.9 77.9 26.9 33.4 10.6 67.9 21.6 96.1 34.2 1.7 0.8 2.5 2.8 1.7 4.5-0.8 1.8-2.8 2.5-4.5 1.8-27.9-12.5-62.2-23.4-95.3-34-27.1-8.6-55.1-17.5-78.5-27-12.1-4.9-24.7-9.1-37-13.2-9.7-3.3-19.8-6.7-29.6-10.4-24.9-9.4-51.7-18.2-78.4-18.7-27-0.5-138 18.6-159.6 25.4-21.1 6.7-29.7 55.8-31.8 70.7-2.3 16.1 6.8 37.9 15.6 59 4.4 10.4 10.9 26.1 19 28.9 2.3 0.8 4.8 0.5 7.6-1.1 10.3-5.7 6.6-26.6 3.7-43.5-1.6-9.3-3-17.3-2.3-23 0.9-8.1 5.1-35 20.5-43.8 10-5.8 61.5-9.9 67.3-10.3 1.8-0.1 3.5 1.3 3.7 3.1 0.1 1.9-1.3 3.6-3.2 3.7-22.3 1.7-57.8 5.6-64.4 9.4-10 5.7-15.4 23.7-17.1 38.6-0.6 4.8 0.8 12.7 2.3 21.2 3.3 19 7.3 42.6-7.1 50.6q-4.3 2.4-8.5 2.4z"/><path class="j" d="m1777.5 993.6c-5.6 0-12.1-2.5-19.1-7.2-10.1-6.9-27.9-19.9-34.3-29.6-10.5-16.1-19.8-57.2-25.8-86.8-5.7-27.7 7.9-44.3 23.5-58.2 5-4.4 10.7-9.3 17.1-14.6 15.1-12.7 33.8-28.6 52.5-47.4 1.4-1.3 3.5-1.3 4.9 0 1.3 1.3 1.3 3.5 0 4.8-19 19.1-37.8 35-53 47.8-6.3 5.3-12 10.2-17 14.6-16.2 14.4-26 28.7-21.3 51.7 3.4 16.7 13.8 67.5 24.8 84.3 4.2 6.4 16.1 16.5 32.5 27.7 7 4.8 13.5 6.9 18 5.7q3.3-0.9 4.8-3.9c6.2-12.8-8.5-29.8-20.3-43.5l-0.7-0.9c-1.2-1.4-1.1-3.6 0.4-4.8 1.4-1.2 3.6-1.1 4.8 0.4l0.7 0.8c13.1 15.2 29.5 34.2 21.2 51-1.9 3.8-5.1 6.4-9.2 7.5q-2.1 0.6-4.5 0.6z"/><path class="j" d="m1811.4 955.4q-0.6 0-1.1-0.2c-2.4-0.8-5.5-1.8-9-2.8-21.3-6.5-57.1-17.5-57.4-39.6-0.3-24.9 61.2-102.2 69.4-107.9 1.6-1.1 3.7-0.7 4.8 0.8 1.1 1.6 0.7 3.7-0.9 4.8-6.1 4.3-66.8 80.6-66.5 102.2 0.3 17.2 34.3 27.5 52.6 33.1 3.6 1.1 6.7 2.1 9.2 2.9 1.8 0.6 2.7 2.6 2.1 4.4-0.5 1.4-1.8 2.3-3.2 2.3z"/><path class="j" d="m1840.9 970.9q-2.1 0-3.6-0.2c-9.1-1.6-28.1-13.3-36.2-27.3-3.8-6.5-4.7-12.7-2.7-18.2 6.8-18.7 59.6-68.7 73-78.1 1.6-1.1 3.7-0.7 4.8 0.8 1.1 1.5 0.7 3.7-0.8 4.8-14.2 9.9-64.7 58.8-70.5 74.9-1.3 3.5-0.6 7.7 2.1 12.3 6.8 11.7 23.8 22.7 31.5 24 7.3 1.3 35.1-4.4 53.5-12 15.3-6.4 19.8-12.1 18.4-23.6-0.3-1.9 1-3.6 2.9-3.8 1.9-0.2 3.6 1.1 3.9 2.9 2.1 16.9-7.5 24.5-22.6 30.8-16.6 6.9-41.9 12.7-53.7 12.7z"/><path class="j" d="m2109.6 950.6q-0.7 0-1.5-0.3c-27.8-13.4-56.3-15-83.8-16.5-13.1-0.8-25.4-1.5-37.2-3.4-13.8-2.3-25.4-4.8-35.6-6.9-16.1-3.4-27.7-5.8-36.3-5.2-8.7 0.7-25.7 12.2-38.1 20.6-7 4.7-13.1 8.8-17 10.6-1.7 0.8-3.8 0.1-4.6-1.6-0.7-1.7 0-3.8 1.7-4.6 3.4-1.6 9.6-5.7 16-10.1 14.5-9.8 31-20.9 41.5-21.7 9.5-0.8 21.6 1.8 38.2 5.3 10.2 2.1 21.7 4.5 35.4 6.8 11.3 1.9 23.5 2.6 36.4 3.3 26.9 1.5 57.3 3.3 86.4 17.2 1.7 0.8 2.4 2.8 1.6 4.5-0.6 1.3-1.8 2-3.1 2z"/><path class="j" d="m1758.7 885.9q-0.1 0-0.1 0c-1.9-0.1-3.4-1.6-3.3-3.5 0.1-7.8 0.2-13 4.2-20.1 4.5-8 17-21.8 31.4-31.5 1.6-1.1 3.7-0.7 4.7 0.9 1.1 1.6 0.7 3.7-0.9 4.8-13 8.8-25.1 21.7-29.3 29.2-3 5.4-3.2 8.8-3.3 16.8 0 1.9-1.6 3.4-3.4 3.4z"/><path class="j" d="m1817 1033.5q-0.9 0-1.7 0l-305.6-28.6c-4.9-0.5-9.3-2.8-12.4-6.5-3-3.8-4.5-8.5-4-13.4l16.4-176.6c0.5-4.9 2.8-9.3 6.6-12.4 3.8-3.1 8.5-4.5 13.5-4.1l97.8 9.2c1.9 0.2 3.3 1.8 3.1 3.7-0.2 1.9-1.8 3.3-3.7 3.1l-97.9-9.2c-3-0.2-6.1 0.7-8.4 2.6-2.4 1.9-3.9 4.7-4.2 7.7l-16.4 176.6c-0.3 3.1 0.6 6.1 2.5 8.4 2 2.3 4.7 3.8 7.7 4.1l305.6 28.5c3 0.3 6-0.6 8.3-2.6 2.4-1.9 3.8-4.7 4.1-7.8l4.3-45.7c0.2-1.9 1.9-3.3 3.8-3 1.8 0.1 3.2 1.8 3 3.7l-4.3 45.7c-0.4 4.8-2.7 9.2-6.5 12.4-3.3 2.8-7.4 4.2-11.6 4.2z"/><path class="j" d="m1724.7 817q-0.1 0-0.3 0l-40.8-3.8c-1.9-0.2-3.3-1.8-3.1-3.7 0.1-1.9 1.9-3.3 3.7-3.1l40.5 3.8c1.9 0.2 3.5 1.8 3.3 3.7-0.2 1.8-1.5 3.1-3.3 3.1z"/><path fill-rule="evenodd" class="k" d="m1529.3 957.6l182.3 16.7c3.9 0.4 6.7 3.8 6.4 7.6-0.4 3.9-3.8 6.7-7.6 6.4l-182.4-16.7c-3.8-0.4-6.6-3.8-6.3-7.6 0.4-3.9 3.8-6.7 7.6-6.4z"/><path class="j" d="m1711 991.7q-0.5 0-1 0l-182.3-16.7c-2.7-0.3-5.2-1.6-7-3.7-1.8-2.2-2.6-4.9-2.4-7.6 0.3-2.8 1.6-5.3 3.7-7.1 2.2-1.8 4.9-2.6 7.6-2.4l182.3 16.7c2.8 0.3 5.3 1.6 7.1 3.7 1.8 2.2 2.6 4.9 2.4 7.6-0.5 5.4-5.1 9.5-10.4 9.5zm-182.3-30.7c-0.9 0-1.7 0.3-2.3 0.9-0.7 0.6-1.2 1.4-1.3 2.4-0.1 0.9 0.2 1.9 0.8 2.6 0.6 0.7 1.5 1.2 2.5 1.3l182.3 16.6c0.9 0.1 1.8-0.2 2.6-0.8 0.7-0.6 1.2-1.4 1.3-2.4 0-0.9-0.2-1.9-0.9-2.6-0.6-0.7-1.4-1.2-2.4-1.3l-182.3-16.6q-0.2-0.1-0.3-0.1z"/><path fill-rule="evenodd" class="l" d="m1542.1 867.6l49.4 4.4c2.8 0.2 4.8 2.7 4.5 5.4l-2.2 25.1c-0.3 2.7-2.7 4.7-5.4 4.5l-49.4-4.5c-2.8-0.2-4.8-2.6-4.5-5.4l2.2-25c0.3-2.8 2.7-4.8 5.4-4.5z"/><path class="j" d="m1588.8 910.4q-0.3 0-0.7 0l-49.4-4.5c-4.6-0.4-8.1-4.5-7.6-9.1l2.2-25c0.2-2.3 1.3-4.3 3-5.7 1.7-1.5 3.9-2.2 6.1-1.9l49.4 4.4c2.3 0.2 4.3 1.2 5.7 3 1.5 1.7 2.1 3.9 1.9 6.1l-2.2 25.1c-0.2 2.2-1.3 4.2-3 5.7-1.5 1.2-3.4 1.9-5.4 1.9zm-47.1-39.4c-0.5 0-0.9 0.2-1 0.3-0.2 0.2-0.5 0.5-0.6 1.1l-2.2 25c-0.1 0.9 0.5 1.7 1.4 1.7l49.4 4.5c0.5 0 0.9-0.2 1.1-0.4 0.2-0.2 0.5-0.5 0.6-1l2.2-25.1c0.1-0.6-0.2-1-0.3-1.1-0.2-0.2-0.5-0.5-1.1-0.6l-49.4-4.4q-0.1 0-0.1 0z"/><path class="j" d="m1896.6 833.1c-1.3 0-2.6-0.8-3.2-2.1-0.7-1.7 0-3.7 1.8-4.5 0.4-0.2 9.8-4.3 23.6-2.4 1.8 0.3 3.2 2 2.9 3.9-0.3 1.9-2 3.2-3.9 2.9-11.8-1.6-19.8 1.8-19.8 1.9q-0.7 0.3-1.4 0.3z"/><path class="j" d="m1850 784.2c-1.2 0-2.4-0.6-3-1.7-1-1.6-0.4-3.7 1.2-4.7 15.2-9 31.9-8.8 32.6-8.8 1.9 0 3.4 1.6 3.4 3.5 0 1.9-1.7 3.4-3.5 3.4-0.1-0.1-15.5-0.2-29 7.8q-0.8 0.5-1.7 0.5z"/><path class="j" d="m1380.9 477.6q-0.2 0-0.4 0c-1.9-0.2-3.3-1.9-3.1-3.8 0.2-1.5 1.9-15.2 8-21.1 1.3-1.3 3.5-1.3 4.8 0.1 1.4 1.3 1.3 3.5 0 4.8-3.7 3.6-5.6 13.7-5.9 17-0.2 1.8-1.7 3-3.4 3z"/><path class="j" d="m1439.1 494.1c-1.9 0-3.4-1.4-3.5-3.3 0-0.3-0.3-7.3 4.5-15.5 0.9-1.6 3-2.2 4.6-1.3 1.7 1 2.2 3.1 1.3 4.7-3.7 6.4-3.5 11.8-3.5 11.8 0 1.9-1.4 3.5-3.3 3.6q-0.1 0-0.1 0z"/><path class="j" d="m2307.1 1051.4q-0.6 0-1.3-0.3c-17.4-7.2-42.7-16.7-69.4-26.6-71.9-26.9-119.4-45.2-125.4-55.1-4.4-7.4-7.6-39.2-2.4-72.1 5.4-34.4 20.9-77.5 39.1-89.5 4.2-2.9 8.5-3.8 12.5-2.9 38.4 9.4 195.6 41.3 197.1 41.6 1.9 0.4 3.1 2.2 2.7 4-0.4 1.9-2.2 3.1-4 2.7-1.6-0.3-158.9-32.2-197.4-41.6-2.1-0.5-4.5 0.1-7.2 1.9-14 9.3-30.1 47.4-36 84.9-5.4 33.9-1.4 62.7 1.5 67.5 5.1 8.6 72.6 33.8 121.9 52.1 26.8 10 52.1 19.5 69.6 26.8 1.8 0.8 2.6 2.8 1.9 4.5-0.6 1.3-1.8 2.1-3.2 2.1z"/><path class="j" d="m1948.4 1427.1q-0.4 0-0.5 0h-1220.3c-0.7 0.1-7 0-10.5-3.6-3.6-3.5-3.6-9.7-3.5-10.4v-63.2c0-0.2-0.1-5.4 1.1-9.6 1.2-4.4 3.6-7.5 3.9-7.8l169.6-233.3c0.2-0.3 3.9-5 9-7.2 5-2.2 11.1-1.8 11.3-1.8h147.7c1.9 0 3.5 1.5 3.5 3.4 0 1.9-1.4 3.5-3.3 3.5h-148.1c-0.3-0.1-4.9-0.4-8.4 1.2-3.4 1.5-6.2 5-6.2 5l-169.7 233.4c-0.1 0.1-1.9 2.4-2.7 5.4-0.9 3.3-0.9 7.7-0.9 7.7v63.4c0 1.3 0.3 4.3 1.5 5.5 1.1 1.1 4 1.6 5.7 1.6h1220.4c1.5 0 3.8-0.3 4.7-1.1 0.9-0.9 1.5-3.4 1.5-4.5v-64.5c0-0.1 0.1-3.9-0.9-7-0.9-2.9-2.8-5.5-2.8-5.5l-169.3-233.1c-0.2-0.2-2.5-4-5.8-5.7-3.4-1.8-8.3-1.8-8.3-1.8h-618.4c-1.9 0-3.4-1.6-3.4-3.5 0-1.9 1.5-3.4 3.4-3.4h618.4q0 0 0 0c0.8 0 6.7 0.1 11.5 2.7 4.9 2.6 7.9 7.4 8.3 8l169.1 232.7c0 0.1 2.6 3.4 3.9 7.6 1.2 4.2 1.2 8.9 1.2 9.1v64.6c-0.1 0.7-0.5 6.2-3.8 9.3-2.9 2.7-7.3 2.9-8.9 2.9z"/><path class="j" d="m1955.7 1345.9h-1237.6c-1.9 0-3.4-1.6-3.4-3.5 0-1.9 1.5-3.4 3.4-3.4h1237.6c1.9 0 3.5 1.5 3.5 3.4 0 1.9-1.6 3.5-3.5 3.5z"/><path fill-rule="evenodd" class="m" d="m1036.9 1199.5h606.5l8.9 15.7h-623.5z"/><path class="j" d="m1652.3 1218.6h-623.5c-1.2 0-2.3-0.6-3-1.7-0.6-1-0.6-2.2-0.1-3.3l8.1-15.6c0.6-1.2 1.8-1.9 3.1-1.9h606.5c1.2 0 2.4 0.7 3 1.8l8.9 15.6c0.6 1 0.6 2.3 0 3.4-0.6 1-1.8 1.7-3 1.7zm-617.9-6.9h612l-5-8.7h-602.4z"/><path class="j" d="m1926.3 1646.7c-1.9 0-3.4-1.5-3.4-3.4v-217.5c0-1.9 1.5-3.4 3.4-3.4 1.9 0 3.4 1.5 3.4 3.4v217.5c0 1.9-1.5 3.4-3.4 3.4z"/><path class="j" d="m744.8 1649.6c-1.9 0-3.5-1.5-3.5-3.4v-221.5c0-1.9 1.6-3.4 3.5-3.4 1.9 0 3.4 1.5 3.4 3.4v221.5c0 1.9-1.5 3.4-3.4 3.4z"/><path class="j" d="m866.4 941.9c-1.8 0-3.9-0.4-6.2-1.5-16.7-7.8-18-43.4-17.9-82.4 0-7.8 0-14.6-0.3-18.5-1.7-19.2-22.8-70.3-48.2-75.9-5.9-1.4-22.5 0-40 1.4-23 1.8-49.1 3.9-66.2 1.7-24.8-3.3-58.2-22.4-90.5-40.8-9.5-5.4-18.5-10.5-27.3-15.3-1.7-0.9-2.3-3-1.4-4.6 0.9-1.7 3-2.3 4.7-1.4 8.8 4.8 18.2 10.1 27.4 15.3 31.7 18.2 64.5 36.9 88 40 16.4 2.1 42.1 0.1 64.8-1.8 19.6-1.5 35.1-2.8 42-1.2 30.4 6.7 51.9 64.2 53.5 82 0.4 4.2 0.4 10.8 0.3 19.1 0 24.3-0.1 69.6 14 76.2 3 1.4 4.7 0.8 5.8 0.2 8.8-4.9 12-33.6 14.2-52.6l0.6-5.3q0.8-7.3 1.7-13.8c2.4-19.3 4.2-33.3 1.8-47-3.6-20.9-12.8-42.7-21.8-63.7-4.6-10.8-9-21.1-12.7-31.3-0.6-1.8 0.3-3.8 2.1-4.4 1.8-0.6 3.7 0.3 4.4 2.1 3.6 10 7.9 20.2 12.5 31 9.1 21.3 18.5 43.4 22.3 65.1 2.5 14.8 0.6 29.9-1.8 49.1-0.6 4.3-1.2 8.8-1.7 13.7l-0.6 5.3c-3.3 29-6.7 51.6-17.7 57.8-1.4 0.8-3.3 1.5-5.8 1.5z"/><path class="j" d="m928.2 986.5c-3.4 0-7.5-1.2-12.4-4.8-10.3-7.5-15.3-30.8-15.3-71.2 0-10.6 0.4-21.6 0.9-32.2 0.7-18.1 1.4-35.1-0.5-43.9-3.6-17.3-15-38-21.8-50.4l-2.1-3.7c-0.9-1.6-0.3-3.7 1.4-4.6 1.6-0.9 3.7-0.3 4.6 1.3l2 3.7c7.1 12.7 18.8 34 22.6 52.3 2 9.7 1.4 26.3 0.6 45.5-0.4 10.6-0.8 21.5-0.8 32-0.1 46.7 6.7 61.5 12.5 65.7 4.3 3.2 8 4.1 11 2.9 3.1-1.4 8.7-6.8 11.2-28.1 1.2-10.1 3.7-24.8 6.5-41.8 5.6-33.4 12.6-74.9 11.6-94.7-1-21-36.4-79.8-55.4-111.3-7.7-13-13.4-22.3-14.8-25.8-0.7-1.8 0.1-3.8 1.9-4.5 1.7-0.7 3.7 0.1 4.4 1.9 1.3 3 7.1 12.6 14.4 24.8 20.7 34.4 55.2 91.8 56.4 114.6 1 20.5-6.1 62.4-11.7 96.1-2.9 16.9-5.3 31.6-6.5 41.5-2.3 19.1-7.3 30-15.3 33.5-1.5 0.7-3.3 1.2-5.4 1.2z"/><path class="j" d="m874.7 660.5c-1 0-1.9-0.4-2.6-1.2-10-11.2-22.5-11.6-22.6-11.6-1.9-0.1-3.4-1.7-3.4-3.5 0.1-1.9 1.8-3.4 3.5-3.4 0.6 0 15.5 0.4 27.6 14 1.3 1.4 1.2 3.5-0.3 4.8-0.6 0.6-1.4 0.9-2.2 0.9z"/><path class="j" d="m992.9 978.6c-29.4 0-35.2-65-37.7-93-0.4-3.7-0.6-6.6-0.8-8.1-0.3-1.9 1-3.7 2.8-3.9 1.9-0.3 3.7 1 3.9 2.8 0.3 1.7 0.6 4.7 0.9 8.6 2 21.9 8.1 88.7 31.9 86.7 15.1-1.2 14.1-35.1 13-71q-0.2-7.3-0.4-14.7c-0.2-10.6-0.3-20.1-0.4-28.7-0.4-27.5-0.6-45.6-4.2-59.8-4.5-18.3-18.6-54.6-43.2-96.7-3-5.1-12.1-19.6-21-33.6-6.5-10.3-12.8-20.1-16-25.3-1-1.6-0.5-3.8 1.2-4.7 1.6-1 3.7-0.5 4.7 1.1 3.2 5.2 9.4 15 15.8 25.2 9 14.1 18.2 28.7 21.2 33.8 25 42.8 39.3 79.8 44 98.6 3.7 14.9 3.9 33.4 4.3 61.4 0.1 8.5 0.3 18 0.5 28.6q0.2 7.4 0.4 14.6c1.2 40.9 2.2 76.3-19.3 78q-0.9 0.1-1.6 0.1z"/><path class="j" d="m1029 923.9c-5.2 0-12.2-2.8-20.7-12.9-1.3-1.4-1.1-3.6 0.3-4.8 1.5-1.2 3.6-1.1 4.9 0.4 6.8 7.9 13.2 11.6 17.7 10.1 3.9-1.4 6.6-6.7 6.9-13.7 1.5-32.6 1.9-132.9-9.8-151.1-12.7-19.6-75.6-92.2-99.7-119.1-21.1-23.7-31.5-22.8-42.5-21.8l-1.8 0.1c-6.7 0.6-19.2 2.9-35 5.8-45.4 8.3-113.9 21-147.1 11-20.8-6.3-57.6-36.7-59.2-38-1.5-1.2-1.7-3.4-0.5-4.8 1.3-1.5 3.4-1.7 4.9-0.5 0.3 0.3 37.3 30.8 56.8 36.7 31.6 9.5 99.2-2.9 143.9-11.2 16-2.9 28.6-5.2 35.6-5.8l1.8-0.1c12.2-1.1 24.8-2.2 48.2 24 24.2 27.1 87.5 100.1 100.3 120 15.5 24 11 153.8 10.9 155.1-0.4 9.9-4.8 17.6-11.4 19.8-1.3 0.5-2.8 0.8-4.5 0.8z"/><path class="j" d="m836.6 705.5c-0.7 0-1.3-0.1-1.9-0.5-6.5-4.3-8.6-4.6-12.8-5.1l-0.9-0.2c-1.9-0.2-3.2-2-2.9-3.8 0.3-1.9 2-3.2 3.9-2.9l0.8 0.1c5.1 0.7 8.2 1.3 15.7 6.2 1.5 1 2 3.1 1 4.7-0.7 1-1.8 1.5-2.9 1.5z"/><path class="j" d="m545.6 727.4q-2.1 0-3.7-0.9c-58.9-32-116.5-71.5-171.2-117.5-1.5-1.2-1.7-3.4-0.4-4.8 1.2-1.5 3.3-1.6 4.8-0.4 54.3 45.6 111.6 84.9 170 116.7 4.6 2.5 28.6-16.3 58.2-61.1 27.7-42 43.4-81.2 40.2-86.2-9.5-11.2-58.1-47.7-101.1-79.8-17.9-13.4-34.8-26.1-48.2-36.5-1.5-1.1-1.8-3.3-0.6-4.8 1.1-1.5 3.3-1.8 4.8-0.6 13.4 10.3 30.3 23 48.1 36.4 45.4 34 92.2 69.1 102.2 80.9 9.5 11.3-23.3 69.5-39.7 94.4-21.3 32.3-49 64.2-63.4 64.2z"/><path class="j" d="m903.7 841.3l-11.6-2.8c-1.8-0.4-2.9-2.3-2.5-4.1 0.4-1.9 2.3-3 4.1-2.6l11.5 2.8z"/><path class="j" d="m1139.3 1129.5q-0.6 0-1.3-0.2c-1.5-0.6-150.8-62.3-253.1-92.7-102.3-30.3-168.1-44.7-168.8-44.8-0.9-0.2-1.7-0.8-2.2-1.6-0.5-0.8-0.6-1.8-0.3-2.7l49-177.7c0.4-1.7 2-2.7 3.7-2.5 0.3 0 31 4.3 75.3 13.2 1.9 0.4 3.1 2.2 2.7 4-0.4 1.9-2.2 3.1-4 2.7-36.2-7.2-63.3-11.4-71.9-12.7l-47.3 171.4c15 3.4 76.6 17.7 165.8 44.2 93.7 27.8 226.7 81.8 250.2 91.4l47.6-172.5c-12.7-6.5-73.4-37.5-141.6-64.3-1.8-0.7-2.6-2.7-2-4.4 0.7-1.8 2.7-2.6 4.5-1.9 76.8 30.1 144.1 65.5 144.8 65.9 1.4 0.7 2.1 2.3 1.7 3.9l-49.5 178.8c-0.2 1-0.9 1.8-1.8 2.2q-0.7 0.3-1.5 0.3z"/><path class="j" d="m1118.7 1105.6q-0.7 0-1.3-0.2c-1.4-0.6-133-55-223.2-81.7-90.2-26.8-148.3-39.4-148.9-39.6-0.9-0.2-1.7-0.7-2.2-1.5-0.5-0.9-0.6-1.8-0.3-2.7l42.3-152.7c0.5-1.7 2.1-2.8 3.8-2.5 0.3 0 26.5 4.2 56.1 10.3 1.8 0.4 3 2.2 2.6 4-0.4 1.9-2.2 3.1-4 2.7-23.6-4.9-45-8.5-52.7-9.8l-40.6 146.3c13.9 3.2 68 15.8 145.8 38.9 82.2 24.4 198.5 71.6 220.3 80.5l41.3-148.1c-10.6-5.8-56.2-30.4-115.3-53.6-1.8-0.7-2.7-2.7-2-4.4 0.7-1.8 2.7-2.7 4.5-2 67.8 26.7 118 55.1 118.5 55.3 1.3 0.8 2 2.4 1.6 3.9l-43 154.4c-0.3 1-0.9 1.8-1.8 2.2q-0.7 0.3-1.5 0.3z"/><path class="j" d="m903.3 856.7q-0.5 0-1.1-0.1-5.3-1.8-11.3-3.5c-1.8-0.5-2.8-2.4-2.3-4.3 0.5-1.8 2.4-2.8 4.2-2.3 4.1 1.2 8 2.4 11.6 3.6 1.8 0.6 2.8 2.5 2.2 4.3-0.5 1.4-1.8 2.3-3.3 2.3z"/><path class="j" d="m954.7 1011.4c-5 0-9.9-0.6-14.9-1.9-15.3-4-28.1-13.6-36.1-27.1-8-13.6-10.2-29.4-6.2-44.6 0.9-3.5 2.1-7 3.7-10.3 0.8-1.7 2.8-2.5 4.5-1.6 1.7 0.8 2.5 2.8 1.7 4.5-1.4 2.9-2.5 6-3.3 9.1-3.5 13.4-1.5 27.4 5.5 39.4 7.1 11.9 18.4 20.5 31.9 24 27.8 7.2 56.3-9.5 63.5-37.2 1.2-4.4 1.7-9 1.7-13.5 0-1.9 1.5-3.5 3.4-3.5 1.9-0.1 3.4 1.5 3.4 3.4 0.1 5.2-0.5 10.3-1.8 15.4-6.9 26.4-30.9 43.9-57 43.9z"/><path class="j" d="m827.3 957.9q-2.5 0.1-4.8-0.5c-14.2-3.7-21.6-22.5-16.6-41.9 2.4-9.1 7.2-17.1 13.5-22.5 6.7-5.7 14.3-7.7 21.4-5.9 2.7 0.7 5.2 2 7.5 3.8 1.5 1.2 1.8 3.3 0.6 4.8-1.2 1.5-3.3 1.7-4.8 0.6q-2.3-1.9-5.1-2.6c-4.8-1.2-10.2 0.4-15.2 4.5-5.2 4.5-9.2 11.2-11.3 19.1-4 15.7 1.2 30.7 11.7 33.4 8.9 2.3 21.1-5.1 25.5-21.2 0.5-1.8 2.4-2.9 4.2-2.4 1.9 0.5 2.9 2.4 2.4 4.2-4.8 17.5-17.8 26.6-29 26.6z"/><path fill-rule="evenodd" class="d" d="m1058 993.7c4.4-17.1 17.6-28.5 29.4-25.4 11.9 3 17.9 19.4 13.4 36.5-4.4 17.1-17.6 28.5-29.5 25.4-11.8-3-17.8-19.4-13.3-36.5z"/><path class="j" d="m1075.2 1034.2q-2.4 0-4.7-0.6c-13.7-3.6-20.8-21.9-15.8-40.8 2.3-8.9 6.9-16.7 13-22 6.4-5.5 13.7-7.6 20.6-5.8 6.8 1.7 12.2 7.1 15.2 15.1 2.7 7.6 3 16.6 0.6 25.6-4.3 16.7-16.7 28.5-28.9 28.5zm8.3-63c-3.7 0-7.7 1.6-11.3 4.8-5.1 4.4-8.9 10.9-10.9 18.6-4 15.2 0.9 29.7 10.9 32.3 10 2.6 21.3-7.7 25.3-22.9 2-7.7 1.8-15.3-0.5-21.5-2.1-5.9-5.8-9.7-10.4-10.9q-1.5-0.4-3.1-0.4zm-25.5 22.5z"/><path class="j" d="m966 515.7c-1 0-2-0.4-2.7-1.3l-57.5-73.1c-1.2-1.5-0.9-3.7 0.6-4.8 1.5-1.2 3.6-0.9 4.8 0.5l57.5 73.2c1.2 1.5 0.9 3.6-0.6 4.8-0.6 0.5-1.3 0.7-2.1 0.7z"/><path class="j" d="m1124.9 461c-1.6 0-3-1.1-3.3-2.6l-22.8-91c-0.4-1.8 0.7-3.6 2.5-4.1 1.8-0.5 3.7 0.6 4.2 2.5l22.7 90.9c0.5 1.9-0.7 3.7-2.5 4.2q-0.4 0.1-0.8 0.1z"/><path class="j" d="m573.4 941.5c-1.6 0-3-1-3.4-2.5-0.4-1.9 0.7-3.7 2.5-4.2l75.7-19.2c1.8-0.4 3.7 0.7 4.1 2.5 0.5 1.8-0.6 3.7-2.4 4.2l-75.7 19.1q-0.4 0.1-0.8 0.1z"/><path class="j" d="m669.2 1134.7c-0.9 0-1.8-0.3-2.5-1-1.3-1.3-1.3-3.5 0-4.8l54-54.5c1.3-1.3 3.5-1.4 4.8 0 1.4 1.3 1.4 3.5 0.1 4.8l-54 54.5c-0.7 0.7-1.6 1-2.4 1z"/><path class="j" d="m1827.5 491.6c-1 0-2-0.4-2.7-1.3-1.2-1.4-0.9-3.6 0.6-4.8l76.5-60.2c1.5-1.2 3.7-0.9 4.8 0.6 1.2 1.4 0.9 3.6-0.6 4.8l-76.5 60.2c-0.6 0.5-1.4 0.7-2.1 0.7z"/><path class="j" d="m1918.2 628.7c-1.4 0-2.7-0.8-3.2-2.2-0.6-1.8 0.3-3.8 2-4.4l75.1-27.5c1.7-0.7 3.7 0.2 4.4 2 0.6 1.8-0.3 3.8-2.1 4.4l-75 27.5q-0.6 0.2-1.2 0.2z"/><path class="j" d="m2017.2 1128.8q-0.6 0-1.3-0.2l-73.1-29.9c-1.8-0.8-2.6-2.8-1.9-4.5 0.7-1.8 2.7-2.6 4.5-1.9l73.1 29.9c1.8 0.7 2.6 2.7 1.9 4.5-0.6 1.3-1.8 2.1-3.2 2.1z"/><path fill-rule="evenodd" class="j" d="m992 1593.7q-2.1-0.3-3.6-1.2-1.4-0.9-2.1-2.2l-0.5-0.9q-0.2-0.7-0.5-1.5-0.3-0.8-0.3-1.5v-64.6q-1.3 0.4-2.1 0.8-0.8 0.4-2.2 0.4-2.8 0-4.4-1.6-1.7-1.6-1.7-3.8 0-3.1 3.7-5.4 3.7-2.3 8.7-3.8 5-1.5 10.6-2.3 5.5-0.7 9.1-0.7 10.5 0 18.7 3.5 8.2 3.4 13.8 9.2 5.6 5.9 8.6 13.6 2.9 7.8 2.9 16.3 0 8.6-3.1 16.9-3.2 8.3-9.7 14.4-4.4 4.4-10 6.9-5.5 2.5-11.6 4-6 1.5-12.2 2.2-6.2 0.8-12.1 1.3zm14.6-76.5q-2.5 0-4.9 0.3-2.5 0.3-4.9 0.7v63.3q4.1-0.4 8.8-1 4.7-0.6 9.2-1.7 4.4-1.2 8.3-3 3.9-1.9 6.5-4.8 4.6-5 7-11.4 2.3-6.3 2.3-12.9 0-5.8-2.1-11.1-2-5.3-6.1-9.4-4.1-4.1-10.2-6.5-6-2.5-13.9-2.5z"/><path fill-rule="evenodd" class="j" d="m1141.9 1553.7q-1.3 5.1-3.6 10.7-2.4 5.6-5.7 10.6-3.2 5.1-7.4 9.2-4.3 4.2-9.3 6.4-2.3 0.8-4 1.5-1.8 0.6-3.5 1.1-1.7 0.4-3.7 0.7-1.9 0.4-4.4 0.6-0.2 0-0.7 0-0.4 0.1-0.8 0.1-3.8 0-7.7-1.2-3.8-1.2-7.3-2.4-5.9-2.2-9.9-6.2-4-4-6.6-9.1-2.5-5.1-3.6-10.9-1-5.7-1-11.5 0-2.1 0.1-4.2 0.1-2.1 0.4-4.1 0.8-4.6 2.6-10 1.7-5.3 4.5-10.4 2.7-5.1 6.2-9.4 3.6-4.3 7.6-6.9 5-3.3 10.8-5 5.7-1.6 11.6-1.6 9.8 0 18.4 4.6 8.7 4.6 13.7 14.1 2.5 4.6 3.5 9.7 1 5.1 1 10.3 0 3.3-0.3 6.7-0.3 3.3-0.9 6.6zm-11.5-1.4q0.4-2.9 0.8-5.8 0.4-3 0.4-6 0-3.7-0.8-7.6-0.7-3.9-2.5-7.2-3.4-6.2-9.7-9.5-6.3-3.3-13.2-3.3-8.2 0-14.7 4.7-4 3.1-7.1 7.4-3.1 4.3-5.2 9.2-2.1 4.9-3.2 10-1 5.1-1 9.7 0 5.7 1.5 11 1.5 5.2 4.7 9.2 3.3 4 8.2 6.4 4.8 2.4 11.5 2.4 2.7 0 5.5-0.7 2.8-0.7 5.1-2 4.2-2.3 7.4-5.6 3.2-3.3 5.7-7.2 2.4-3.9 4.2-8.3 1.7-4.4 2.8-8.7z"/><path fill-rule="evenodd" class="j" d="m1216.7 1506.7q0.7-2.9 2.3-4.3 1.6-1.5 3.6-1.5 1.9 0.1 3.5 1.3 1.7 1.3 2.4 4.1 0 20.5-0.3 39.8-0.3 19.3-1.4 39.9 0 0 0.1 0.1h-0.1q-0.2 0.7-0.2 1.2 0 0.5 0 1.1-0.8 2.3-2.3 3.5-1.5 1.1-3.3 1.1-2.6 0-4.9-2.3-0.2-0.6-0.5-1-0.3-0.4-0.6-0.9h-0.1v-0.2q-5.2-8.8-10.7-16.8-5.5-8-11.2-15.7-5.8-7.7-11.7-15.2-6-7.6-12.3-15.5 0 7.6 0 14.7 0 7.2 0 14.4 0 7.3 0 15.2 0.1 7.9 0.1 17.1-0.1 3.3-1.9 5-1.8 1.6-4 1.6-2 0-3.7-1.5-1.8-1.5-2.2-4.6 0-19.5-0.1-39.4 0-19.9 0-39.3 0.5-2.6 2.1-4.1 1.6-1.4 3.6-1.4 2 0 4.3 1.6 6.7 7.9 13 15.5 6.3 7.5 12.4 15.1 6.1 7.7 11.9 15.6 5.8 8 11.2 16.7 0.6-15.9 0.8-30.4 0.2-14.5 0.2-30.5z"/><path fill-rule="evenodd" class="j" d="m1314.8 1586.3q-0.1 2.7-1.4 4.4-1.3 1.7-3.2 2.1-1.8 0.4-3.7-0.7-1.9-1-3.2-3.4-0.8-6.8-2.4-13.3-1.6-6.6-3.8-13l-38.1 0.3q-0.3 0-0.6-0.1-0.4-0.1-0.7-0.1-3.6 12.2-6.5 25.3-1.1 3.1-3.3 4.1-2.1 1-4.1 0.4-1.9-0.6-3.1-2.6-1.2-2-0.7-5.2 4.8-20.8 11.5-40.8 6.7-19.9 16.7-38.9 0.9-2.7 4-3.4 1.6-0.6 3.1-0.2 1.4 0.3 2.4 1.3 0.2 0 0.2 0.1 0 0.1 0.1 0.1 7.5 7.2 12.5 16.2 5.1 9.1 9.2 18.4 1.6 3.4 3 6.7 1.3 3.3 2.6 6.6l7.7-0.2q2.7 0.9 4 2.6 1.3 1.8 1.2 3.5-0.1 1.8-1.5 3.5-1.4 1.7-4.2 2.2h-3q1.9 5.9 3.2 11.9 1.4 6 2.1 12.2zm-39.7-69.2q-4 8.2-7.4 16.6-3.4 8.5-6.2 17.2l31.3-0.3q-1.9-4.3-3.8-8.5-1.9-4.2-3.9-8.4-2.4-4.1-4.7-8.4-2.3-4.4-5.3-8.2z"/><path fill-rule="evenodd" class="j" d="m1380 1505.1q2.6 0.9 3.9 2.6 1.3 1.7 1.1 3.6-0.1 2-1.6 3.5-1.4 1.5-4.3 2.1l-22.4 0.2 0.1 70.2q-0.1 3.3-1.9 4.9-1.8 1.7-4 1.7-2 0-3.7-1.5-1.7-1.5-2.2-4.7l-0.1-70.6h-22.7q-3.1-0.6-4.6-2.4-1.5-1.8-1.3-3.8 0.1-2.2 1.8-3.9 1.6-1.7 4.9-1.7 1.8 0 6.1 0 4.4 0 10.2 0 5.7 0 12.2 0 6.5 0 12.2 0 5.8 0 10.2-0.1 4.4-0.1 6.1-0.1z"/><path fill-rule="evenodd" class="j" d="m1430.3 1578.8q3.2-0.2 5 1.4 1.8 1.6 2.1 3.6 0.3 2-1.1 4-1.4 1.9-4.5 2.6-7.5 0.3-14.9 0.2-7.4 0-14.9 0-3.2-0.5-4.7-2.3-1.5-1.8-1.4-3.8 0.1-2.1 1.7-3.9 1.7-1.7 4.8-1.8 2.2 0 4.3 0 2.1 0 4.2 0.1v-62.8h-9q-3.2-0.5-4.7-2.3-1.5-1.8-1.5-3.9 0.1-2 1.8-3.8 1.6-1.7 4.8-1.8h29.6q2.8 0.8 4 2.5 1.3 1.8 1.3 3.6-0.1 1.8-1.5 3.4-1.5 1.7-4.2 2.3h-8.8v63q1.9 0 3.8-0.1 1.8-0.1 3.8-0.2z"/><path fill-rule="evenodd" class="j" d="m1531.2 1553.7q-1.3 5.1-3.7 10.7-2.4 5.6-5.6 10.6-3.2 5.1-7.5 9.2-4.2 4.2-9.3 6.4-2.3 0.8-4 1.5-1.7 0.6-3.4 1.1-1.8 0.4-3.7 0.7-2 0.4-4.4 0.6-0.3 0-0.7 0-0.4 0.1-0.9 0.1-3.7 0-7.6-1.2-3.9-1.2-7.3-2.4-5.9-2.2-10-6.2-4-4-6.5-9.1-2.5-5.1-3.6-10.9-1.1-5.7-1.1-11.5 0-2.1 0.2-4.2 0.1-2.1 0.4-4.1 0.7-4.6 2.5-10 1.8-5.3 4.5-10.4 2.8-5.1 6.3-9.4 3.5-4.3 7.5-6.9 5.1-3.3 10.8-5 5.8-1.6 11.7-1.6 9.8 0 18.4 4.6 8.6 4.6 13.7 14.1 2.4 4.6 3.4 9.7 1 5.1 1 10.3 0 3.3-0.3 6.7-0.3 3.3-0.8 6.6zm-11.5-1.4q0.4-2.9 0.8-5.8 0.3-3 0.3-6 0-3.7-0.7-7.6-0.7-3.9-2.6-7.2-3.3-6.2-9.6-9.5-6.4-3.3-13.3-3.3-8.2 0-14.6 4.7-4.1 3.1-7.2 7.4-3 4.3-5.1 9.2-2.1 4.9-3.2 10-1.1 5.1-1.1 9.7 0 5.7 1.5 11 1.5 5.2 4.8 9.2 3.2 4 8.1 6.4 4.9 2.4 11.5 2.4 2.7 0 5.6-0.7 2.8-0.7 5.1-2 4.1-2.3 7.4-5.6 3.2-3.3 5.7-7.2 2.4-3.9 4.1-8.3 1.7-4.4 2.9-8.7z"/><path fill-rule="evenodd" class="j" d="m1606 1506.7q0.7-2.9 2.3-4.3 1.6-1.5 3.6-1.5 1.8 0.1 3.5 1.3 1.7 1.3 2.4 4.1 0 20.5-0.3 39.8-0.3 19.3-1.5 39.9 0 0 0.2 0.1h-0.2q-0.1 0.7-0.1 1.2 0 0.5 0 1.1-0.9 2.3-2.4 3.5-1.5 1.1-3.2 1.1-2.6 0-4.9-2.3-0.3-0.6-0.6-1-0.3-0.4-0.5-0.9h-0.2v-0.2q-5.2-8.8-10.6-16.8-5.5-8-11.3-15.7-5.7-7.7-11.7-15.2-5.9-7.6-12.3-15.5 0 7.6 0 14.7 0 7.2 0 14.4 0 7.3 0.1 15.2 0.1 7.9 0.1 17.1-0.2 3.3-2 5-1.8 1.6-3.9 1.6-2 0-3.8-1.5-1.7-1.5-2.1-4.6 0-19.5-0.1-39.4-0.1-19.9-0.1-39.3 0.6-2.6 2.2-4.1 1.6-1.4 3.6-1.4 2 0 4.3 1.6 6.6 7.9 12.9 15.5 6.4 7.5 12.5 15.1 6.1 7.7 11.9 15.6 5.7 8 11.2 16.7 0.5-15.9 0.8-30.4 0.2-14.5 0.2-30.5z"/><path fill-rule="evenodd" class="j" d="m1635.2 1580.1q-0.9-2-0.9-3.8 0-2.4 1.5-3.9 1.5-1.5 3.8-1.5 2.3 0 4.5 1.5 2.4 2.9 5.7 4.9 3.2 1.9 6.9 3 3.7 1.1 7.5 1.5 3.8 0.4 7.4 0.4 2.4-0.8 3.4-1.1 0.9-0.2 1.5-0.5 0.5-0.2 1.3-0.8 0.7-0.6 2.7-2 0.7-1 1.3-1.9 0.6-0.9 1.3-1.9l1.3-3.9q0-1 0-1.9 0-0.9-0.2-2.1-0.3-1-0.7-1.9-0.4-1-0.8-2-0.9-1-1.7-1.8-0.8-0.9-1.7-1.9-1.3-0.7-2.5-1.6-1.3-0.9-2.9-1.3-5.9-2-10.9-2.8-4.9-0.8-9.3-2-4.4-1.2-8.3-3.8-3.9-2.6-7.6-8.4-0.8-1.1-0.9-1.7-0.1-0.6-0.3-2-0.1-1.2-0.2-2.2-0.1-1.1-0.1-2.1 0-2.6 0.5-4.6 0.5-2 1.5-3.9 1-1.9 2.6-3.8 1.6-2 3.8-4.3 2.4-2.5 5.6-4.2 3.1-1.7 6.6-2.6 3.5-0.9 7.1-1.3 3.7-0.3 7.1-0.3 1.2 0 2.1 0 1 0 2 0.1 3.3 0.3 6.2 1.6 3 1.3 6.1 2.1 3.3 2.3 3.3 5.6 0 2.2-1.6 3.9-1.7 1.6-4.7 1.6-0.3 0-0.6-0.1-0.4 0-0.7 0-4.6-1.5-8.1-2.3-3.5-0.8-6.8-0.7-3.5 0-7.1 1.1-3.6 1.2-8.3 3.9-0.9 1.1-1.8 2.1-0.8 0.9-1.7 1.9-0.4 0.9-0.8 1.7-0.3 0.9-0.6 1.8 0 0.8 0.1 1.7 0 0.9 0.2 1.6 0.5 0.7 1 1.4 0.4 0.7 1 1.4l6 3.5q4.3 1 8.1 1.7 3.7 0.7 7.2 1.7 3.4 0.9 6.8 2.2 3.4 1.3 7.3 3.5 2 1.1 3.4 2.9 1.5 1.8 2.8 3.4 2.3 2.7 3.3 6.2 1.1 3.4 1.1 7.2 0 5.2-2 10-2 4.9-5.8 8.1-1.2 1.1-2.6 2.1-1.4 0.9-2.7 1.8-3 2-6.7 3-3.8 1-7.9 1-4.8 0-9.6-1.1-4.8-1-9.3-3-4.5-1.9-8.2-4.5-3.7-2.6-6.3-5.6z"/></svg>